<svg xmlns="http://www.w3.org/2000/svg" width="40" height="32" viewBox="0 0 64 64" fill="none">
  <defs>
    <linearGradient id="strokeYellow" x1="0" y1="0" x2="64" y2="64" gradientUnits="userSpaceOnUse">
      <stop offset="0.25" stop-color="#FFDB6E"/>
      <stop offset="1" stop-color="#FFBC5E"/>
    </linearGradient>
  </defs>

  <!-- Outer Hollow Box -->
  <rect x="1" y="1" width="62" height="62" rx="6" stroke="url(#strokeYellow)" stroke-width="2" fill="none"/>

  <!-- Hollow PDF Page -->
  <path d="M12 8h28l12 12v32a4 4 0 0 1-4 4H12a4 4 0 0 1-4-4V12a4 4 0 0 1 4-4z" 
        stroke="url(#strokeYellow)" stroke-width="2" fill="none"/>
  <polyline points="40,8 40,20 52,20" 
            stroke="url(#strokeYellow)" stroke-width="2" fill="none"/>

  <!-- Hollow Text Lines -->
  <line x1="16" y1="20" x2="40" y2="20" stroke="#FFDB6E" stroke-width="1.5"/>
  <line x1="16" y1="26" x2="36" y2="26" stroke="#FFDB6E" stroke-width="1.5"/>
  <line x1="16" y1="32" x2="34" y2="32" stroke="#FFDB6E" stroke-width="1.5"/>

  <!-- Hollow Arrow -->
  <line x1="24" y1="42" x2="36" y2="42" stroke="#FFDB6E" stroke-width="2"/>
  <polyline points="33,39 36,42 33,45" 
            stroke="#FFDB6E" stroke-width="2" fill="none" stroke-linecap="round" stroke-linejoin="round"/>
</svg>
